<svg width="28" height="12" xmlns="http://www.w3.org/2000/svg" fill="none"><defs><clipPath id="a"><path d="M0 0h100v12H0V0z" fill="#fff"/></clipPath></defs><g stroke-width="0" fill="#E7E7E7" clip-path="url('#a')"><path d="M24.366 2.113h6.36l.628-1.982h-9.108l-2.527 11.99h5.903l.424-1.983H22.67l.644-3.022h3.375l.408-1.983h-3.36l.628-3.02zM19.5 5.134h-2.51l.406-1.935c.17-.802.323-1.086.577-1.086.255 0 .34.567.203 1.275h2.562l.254-1.275c.187-.944.187-1.982-.271-1.982h-4.512c-.407 0-.73.142-.967 1.227l-.797 3.776c-.22 1.086-.203 1.983.34 1.983h2.594l-.424 2.077c-.119.566-.271.944-.627.944-.306 0-.288-.567-.153-1.133H13.63l-.305 1.416c-.187.897-.034 1.7.407 1.7h4.477c.408 0 .764-.52.967-1.464l.764-3.54c.17-.897.084-1.983-.442-1.983z"/><path d="M30.395 2.463c-.207 0-.375.453-.375 1.006a.374 1.017 0 1 0 .748 0c0-.553-.167-1.006-.373-1.006zm0 1.826a.3.815 0 0 1-.304-.82c0-.447.135-.809.304-.809a.3.814 0 1 1 0 1.63zM13.715.131H9.88c-.526 0-1.204 0-1.611 1.982l-1.696 8.025c-.237 1.085-.034 1.982.407 1.982h4.46c.459 0 .747-.377 1.103-1.982l1.696-8.025c.221-1.038-.119-1.982-.526-1.982zM11.56 3.2l-1.272 5.995c-.169.85-.322.944-.712.944-.39 0-.492-.378-.373-.944L10.492 3.2c.187-.897.407-1.086.73-1.086.322 0 .508.284.338 1.086zM6.998.131H2.079L-.04 10.138h-4.681l-.715 1.982H4.725c.628 0 .832-.85.967-1.51l.509-2.455c.136-.66.136-1.416-.136-1.84.272 0 .645-.52.865-1.605l.509-2.408c.255-1.18-.05-2.17-.44-2.17h-.001zM4.471 8.202l-.254 1.133c-.068.378-.187.803-.476.803H2.486l.645-3.02h1.221c.22 0 .22.565.119 1.084zM5.539 3.2l-.254 1.133c-.068.378-.187.802-.475.802H3.555l.644-3.02h1.222c.22 0 .22.566.118 1.085z"/><path d="M30.586 3.206a.526.526 0 0 0-.046-.244.201.547 0 0 0-.102-.055h-.182V4.04h.061v-.52h.074l.119.52h.071l-.127-.52c.075-.007.132-.09.132-.314v.001zm-.2.171h-.069v-.34h.109c.052 0 .098.02.098.165 0 .204-.08.175-.138.175z"/></g></svg>