<svg aria-hidden="true" style="width:0;height:0;position:absolute;overflow:hidden" xmlns="http://www.w3.org/2000/svg"><defs><symbol id="icon-arrow" viewBox="0 0 31 32"><path fill="none" stroke="#df3d3a" style="stroke:var(--color1,#df3d3a)" stroke-width="2.783" d="M1.391 29.783 29.217 1.957m0 0H1.391m27.826 0v27.826"/></symbol><symbol id="icon-bose-logo" viewBox="0 0 260 32"><path d="M210.618 5.048h44.948l4.436-5.036h-64.368l-17.86 30.446h41.714l2.996-5.034h-23.852l4.554-7.672h23.852l2.878-5.034h-23.734l4.436-7.67zm-34.4 7.67h-17.74l2.876-4.914c1.2-2.038 2.278-2.756 4.076-2.756s2.396 1.438 1.438 3.236h18.1l1.798-3.236c1.318-2.4 1.318-5.036-1.92-5.036h-31.88c-2.876 0-5.154.36-6.832 3.118l-5.634 9.588c-1.56 2.758-1.44 5.034 2.398 5.034h18.338l-2.996 5.274c-.84 1.44-1.92 2.398-4.436 2.398-2.156 0-2.038-1.44-1.08-2.876h-17.978l-2.158 3.594c-1.318 2.28-.24 4.316 2.878 4.316h31.644c2.876 0 5.392-1.32 6.832-3.716l5.394-8.99c1.2-2.276.6-5.034-3.116-5.034z"/><path d="M253.222 5.934c-1.462 0-2.648 1.15-2.648 2.554 0 1.434 1.186 2.584 2.648 2.584 1.456 0 2.636-1.15 2.636-2.584 0-1.404-1.18-2.554-2.636-2.554zm0 4.636c-1.194 0-2.146-.91-2.146-2.08 0-1.136.952-2.054 2.146-2.054 1.18 0 2.134.918 2.134 2.052 0 1.172-.954 2.082-2.134 2.082zM135.342.012h-27.088c-3.716 0-8.51 0-11.388 5.036L84.88 25.424c-1.678 2.756-.24 5.034 2.876 5.034h31.524c3.238 0 5.274-.96 7.792-5.034l11.986-20.376c1.56-2.638-.84-5.036-3.716-5.036zM120.12 7.804l-8.99 15.222c-1.2 2.16-2.278 2.398-5.034 2.398-2.758 0-3.476-.96-2.638-2.398l9.11-15.222c1.32-2.278 2.876-2.756 5.154-2.756 2.28 0 3.596.72 2.398 2.756zM87.876.012h-34.76L38.134 25.424H5.052L0 30.458h71.816c4.434 0 5.872-2.158 6.832-3.836l3.596-6.232c.958-1.68.958-3.596-.96-4.676 1.92 0 4.554-1.318 6.114-4.074l3.596-6.114C92.79 2.53 90.634.012 87.876.012zM70.016 20.51l-1.796 2.876c-.48.96-1.32 2.038-3.356 2.038h-8.87l4.556-7.672h8.628c1.56 0 1.56 1.44.84 2.758zm7.552-12.706L75.77 10.68c-.48.96-1.318 2.04-3.356 2.04h-8.87L68.1 5.048h8.63c1.558 0 1.558 1.438.84 2.756z"/><path d="M254.576 7.82v-.022c0-.25-.13-.47-.326-.596l-.003-.002a1.427 1.427 0 0 0-.725-.138h.005-1.29V9.94h.438V8.614h.518l.844 1.326h.502l-.896-1.326c.524-.014.932-.224.932-.792zm-1.42.436h-.48V7.39h.764c.372 0 .698.05.698.422 0 .518-.566.444-.982.444z"/></symbol><symbol id="icon-play-btn" viewBox="0 0 32 32"><path fill="#df3d3a" style="fill:var(--color1,#df3d3a)" d="M32 16c0 8.837-7.163 16-16 16S0 24.837 0 16 7.163 0 16 0s16 7.163 16 16z"/><path fill="#fff" style="fill:var(--color3,#fff)" opacity=".8" d="m20.845 15.887-7.098 4.098v-8.197l7.098 4.098z"/></symbol><symbol id="icon-point" viewBox="0 0 32 32"><path fill="#df3d3a" style="fill:var(--color1,#df3d3a)" d="M32 16c0 8.837-7.163 16-16 16S0 24.837 0 16 7.163 0 16 0s16 7.163 16 16z"/></symbol><symbol id="icon-question-mark" viewBox="0 0 32 32"><path fill="#e7e7e7" style="fill:var(--color2,#e7e7e7)" d="M14.7 19.349c0-.834.087-1.511.261-2.031s.597-1.185 1.271-1.99l.729-.937c.486-.68.729-1.389.729-2.126 0-.728-.152-1.298-.459-1.708-.299-.416-.729-.625-1.291-.625-.528 0-.969.187-1.323.562-.347.376-.521.878-.521 1.511h-1.833c.014-1.146.361-2.059 1.042-2.74s1.559-1.021 2.635-1.021c1.118 0 1.996.35 2.635 1.052s.958 1.67.958 2.907c0 1.181-.483 2.364-1.448 3.552l-.958 1.156c-.396.563-.594 1.375-.594 2.438H14.7zm1 2.197c.347 0 .608.108.782.323.181.209.27.469.27.782s-.09.573-.27.781c-.174.201-.434.302-.782.302-.354 0-.617-.101-.792-.302-.166-.209-.25-.469-.25-.782s.084-.572.25-.781c.174-.215.438-.323.792-.323z"/></symbol><symbol id="icon-quotes" viewBox="0 0 44 32"><path fill="#df3d3a" style="fill:var(--color1,#df3d3a)" d="M0 15.411V0h17.875v11.603C17.875 23.69 11.917 30.489 0 32v-6.345c3.011-.786 5.069-1.934 6.173-3.446 1.167-1.51 1.874-3.776 2.12-6.798H0zm25.645 0V0H43.52v11.603c0 12.087-5.958 18.886-17.875 20.397v-6.345c3.009-.786 5.069-1.934 6.173-3.446 1.167-1.51 1.874-3.776 2.12-6.798h-8.294z"/></symbol><symbol id="icon-sinusoid" viewBox="0 0 74 32"><path fill="#fff" style="fill:var(--color3,#fff)" opacity=".8" d="M1.345 31.77c-.42.113-.869.083-1.345-.096l.131-.347c.414.156.783.175 1.117.085.336-.091.654-.296.957-.614.61-.642 1.134-1.717 1.602-3.117.832-2.485 1.465-5.909 2.13-9.514l.25-1.351c.76-4.079 1.597-8.263 2.844-11.427.624-1.583 1.355-2.925 2.241-3.873.889-.953 1.941-1.515 3.193-1.515 1.131 0 2.118.523 2.985 1.407.864.882 1.618 2.133 2.289 3.617 1.344 2.967 2.382 6.916 3.315 10.847.224.945.443 1.89.658 2.82.681 2.945 1.328 5.745 2.031 7.98.463 1.471.945 2.681 1.469 3.521.369.591.742.973 1.123 1.149l.005-.014c.414.156.783.175 1.117.085.336-.091.654-.296.956-.614.61-.642 1.134-1.717 1.603-3.117.832-2.485 1.464-5.909 2.13-9.514l.25-1.351c.759-4.079 1.597-8.263 2.844-11.427.623-1.583 1.355-2.925 2.241-3.873C40.37.564 41.422.003 42.674.003c1.131 0 2.116.523 2.979 1.407.861.882 1.609 2.133 2.275 3.617 1.332 2.968 2.355 6.916 3.273 10.847.22.943.435 1.886.645 2.814l.001.003.001.003c.669 2.945 1.306 5.746 2 7.981.457 1.471.934 2.681 1.455 3.521.367.591.738.972 1.118 1.149l.006-.015c.414.156.785.175 1.125.085.341-.091.666-.297.977-.616.627-.643 1.174-1.719 1.67-3.118.885-2.495 1.585-5.935 2.32-9.554l.003-.014.264-1.297c.835-4.079 1.748-8.263 3.052-11.427.652-1.583 1.407-2.924 2.309-3.872.905-.952 1.966-1.513 3.218-1.513 1.13 0 2.118.523 2.984 1.407.864.882 1.618 2.133 2.29 3.617 1.344 2.967 2.382 6.916 3.315 10.847.224.945.443 1.89.657 2.82.681 2.945 1.328 5.745 2.031 7.98.463 1.471.945 2.681 1.469 3.521.529.848 1.067 1.264 1.624 1.264v.371c-.761 0-1.395-.567-1.939-1.439-.549-.881-1.043-2.127-1.508-3.606-.708-2.25-1.36-5.071-2.041-8.02l-.001-.003c-.214-.926-.431-1.865-.653-2.802-.934-3.933-1.965-7.849-3.293-10.779-.663-1.465-1.395-2.672-2.216-3.51C73.265.837 72.368.376 71.365.376c-1.126 0-2.095.501-2.949 1.398-.857.901-1.591 2.194-2.235 3.757-1.288 3.127-2.195 7.275-3.032 11.36l-.267 1.314c-.734 3.612-1.439 7.081-2.334 9.602-.501 1.411-1.069 2.55-1.754 3.253-.345.354-.725.603-1.147.716a1.977 1.977 0 0 1-.734.055l.009.001v.002c-.761 0-1.393-.567-1.934-1.439-.546-.881-1.035-2.128-1.494-3.606-.699-2.25-1.34-5.071-2.01-8.021-.851-4.167-1.073-5.111-1.299-6.055l.655 3.249c-.918-3.933-1.935-7.849-3.25-10.78-.658-1.465-1.385-2.672-2.203-3.51-.815-.835-1.71-1.296-2.713-1.296-1.126 0-2.085.501-2.922 1.397-.84.9-1.551 2.193-2.167 3.756-1.231 3.126-2.064 7.274-2.824 11.359.646-4.145.559-3.687.472-3.228l-.723 4.581c-.664 3.598-1.302 7.05-2.143 9.562-.472 1.411-1.017 2.551-1.685 3.255-.337.354-.711.604-1.129.717a1.946 1.946 0 0 1-.727.055l.009.001v.001c-.761 0-1.395-.567-1.939-1.439-.55-.881-1.043-2.127-1.508-3.606-.708-2.25-1.36-5.071-2.041-8.02-.214-.927-.432-1.867-.654-2.805-.934-3.933-1.966-7.849-3.293-10.779-.664-1.465-1.396-2.672-2.217-3.51C16.365.838 15.467.377 14.464.377c-1.126 0-2.085.501-2.922 1.397-.84.9-1.551 2.193-2.166 3.756-1.231 3.126-2.064 7.274-2.825 11.359L6.3 18.242c-.664 3.598-1.301 7.05-2.143 9.562-.472 1.411-1.017 2.551-1.685 3.255-.337.354-.711.604-1.129.717z"/></symbol><symbol id="icon-close-menu" viewBox="0 0 32 32"><path d="M29.922.832c.413.414.669.985.669 1.616s-.256 1.202-.669 1.616L18.61 15.378l11.314 11.314a2.286 2.286 0 0 1-3.234 3.232L15.378 18.61 4.064 29.924a2.286 2.286 0 0 1-3.232-3.233l-.001.001 11.314-11.314L.831 4.064A2.286 2.286 0 1 1 4.062.831l.001.001 11.314 11.312L26.691.832c.413-.413.984-.668 1.615-.668s1.201.255 1.615.668z"/></symbol><symbol id="icon-burger-menu" viewBox="0 0 54 32"><path d="M54.154 30.823H0v-4.785h54.154v4.785zm0-11.963H0v-4.785h54.154v4.785zm0-11.963H0V2.109h54.154v4.788z"/></symbol><symbol id="icon-Vector" viewBox="0 0 31 32"><path stroke-width="2.783" d="M1.391 29.783 29.217 1.957m0 0H1.391m27.826 0v27.826"/></symbol><symbol id="icon-Ellipse" viewBox="0 0 32 32"><path stroke-width="1.454" d="M31.273 16c0 8.435-6.838 15.273-15.273 15.273S.727 24.435.727 16C.727 7.565 7.565.727 16 .727S31.273 7.565 31.273 16z"/></symbol></defs></svg>