<svg aria-hidden="true" style="position: absolute; width: 0; height: 0; overflow: hidden;" version="1.1" xmlns="http://www.w3.org/2000/svg" xmlns:xlink="http://www.w3.org/1999/xlink">
<defs>
<symbol id="icon-arrow" viewBox="0 0 31 32">
<path fill="none" stroke="#df3d3a" style="stroke: var(--color1, #df3d3a)" stroke-linejoin="miter" stroke-linecap="butt" stroke-miterlimit="4" stroke-width="2.7826" d="M1.391 29.783l27.826-27.826M29.217 1.957h-27.826M29.217 1.957v27.826"></path>
</symbol>
<symbol id="icon-bose-logo" viewBox="0 0 260 32">
<path fill="#e7e7e7" style="fill: var(--color2, #e7e7e7)" d="M210.618 5.048h44.948l4.436-5.036h-64.368l-17.86 30.446h41.714l2.996-5.034h-23.852l4.554-7.672h23.852l2.878-5.034h-23.734l4.436-7.67zM176.218 12.718h-17.74l2.876-4.914c1.2-2.038 2.278-2.756 4.076-2.756s2.396 1.438 1.438 3.236h18.1l1.798-3.236c1.318-2.4 1.318-5.036-1.92-5.036h-31.88c-2.876 0-5.154 0.36-6.832 3.118l-5.634 9.588c-1.56 2.758-1.44 5.034 2.398 5.034h18.338l-2.996 5.274c-0.84 1.44-1.92 2.398-4.436 2.398-2.156 0-2.038-1.44-1.080-2.876h-17.978l-2.158 3.594c-1.318 2.28-0.24 4.316 2.878 4.316h31.644c2.876 0 5.392-1.32 6.832-3.716l5.394-8.99c1.2-2.276 0.6-5.034-3.116-5.034z"></path>
<path fill="#e7e7e7" style="fill: var(--color2, #e7e7e7)" d="M253.222 5.934c-1.462 0-2.648 1.15-2.648 2.554 0 1.434 1.186 2.584 2.648 2.584 1.456 0 2.636-1.15 2.636-2.584 0-1.404-1.18-2.554-2.636-2.554zM253.222 10.57c-1.194 0-2.146-0.91-2.146-2.080 0-1.136 0.952-2.054 2.146-2.054 1.18 0 2.134 0.918 2.134 2.052 0 1.172-0.954 2.082-2.134 2.082zM135.342 0.012h-27.088c-3.716 0-8.51 0-11.388 5.036l-11.986 20.376c-1.678 2.756-0.24 5.034 2.876 5.034h31.524c3.238 0 5.274-0.96 7.792-5.034l11.986-20.376c1.56-2.638-0.84-5.036-3.716-5.036zM120.12 7.804l-8.99 15.222c-1.2 2.16-2.278 2.398-5.034 2.398-2.758 0-3.476-0.96-2.638-2.398l9.11-15.222c1.32-2.278 2.876-2.756 5.154-2.756 2.28 0 3.596 0.72 2.398 2.756zM87.876 0.012h-34.76l-14.982 25.412h-33.082l-5.052 5.034h71.816c4.434 0 5.872-2.158 6.832-3.836l3.596-6.232c0.958-1.68 0.958-3.596-0.96-4.676 1.92 0 4.554-1.318 6.114-4.074l3.596-6.114c1.796-2.996-0.36-5.514-3.118-5.514zM70.016 20.51l-1.796 2.876c-0.48 0.96-1.32 2.038-3.356 2.038h-8.87l4.556-7.672h8.628c1.56 0 1.56 1.44 0.84 2.758zM77.568 7.804l-1.798 2.876c-0.48 0.96-1.318 2.040-3.356 2.040h-8.87l4.556-7.672h8.63c1.558 0 1.558 1.438 0.84 2.756z"></path>
<path fill="#e7e7e7" style="fill: var(--color2, #e7e7e7)" d="M254.576 7.82c0-0.007 0-0.015 0-0.022 0-0.25-0.13-0.47-0.326-0.596l-0.003-0.002c-0.182-0.089-0.397-0.141-0.624-0.141-0.034 0-0.067 0.001-0.101 0.003l0.005-0h-1.29v2.878h0.438v-1.326h0.518l0.844 1.326h0.502l-0.896-1.326c0.524-0.014 0.932-0.224 0.932-0.792zM253.156 8.256h-0.48v-0.866h0.764c0.372 0 0.698 0.050 0.698 0.422 0 0.518-0.566 0.444-0.982 0.444z"></path>
</symbol>
<symbol id="icon-play-btn" viewBox="0 0 32 32">
<path fill="#df3d3a" style="fill: var(--color1, #df3d3a)" d="M32 16c0 8.837-7.163 16-16 16s-16-7.163-16-16c0-8.837 7.163-16 16-16s16 7.163 16 16z"></path>
<path fill="#fff" style="fill: var(--color3, #fff)" opacity="0.8" d="M20.845 15.887l-7.098 4.098v-8.197l7.098 4.098z"></path>
</symbol>
<symbol id="icon-point" viewBox="0 0 32 32">
<path fill="#df3d3a" style="fill: var(--color1, #df3d3a)" d="M32 16c0 8.837-7.163 16-16 16s-16-7.163-16-16c0-8.837 7.163-16 16-16s16 7.163 16 16z"></path>
</symbol>
<symbol id="icon-question-mark" viewBox="0 0 32 32">

<path fill="#e7e7e7" style="fill: var(--color2, #e7e7e7)" d="M14.7 19.349c0-0.834 0.087-1.511 0.261-2.031s0.597-1.185 1.271-1.99l0.729-0.937c0.486-0.68 0.729-1.389 0.729-2.126 0-0.728-0.152-1.298-0.459-1.708-0.299-0.416-0.729-0.625-1.291-0.625-0.528 0-0.969 0.187-1.323 0.562-0.347 0.376-0.521 0.878-0.521 1.511h-1.833c0.014-1.146 0.361-2.059 1.042-2.74s1.559-1.021 2.635-1.021c1.118 0 1.996 0.35 2.635 1.052s0.958 1.67 0.958 2.907c0 1.181-0.483 2.364-1.448 3.552l-0.958 1.156c-0.396 0.563-0.594 1.375-0.594 2.438h-1.833zM15.7 21.546c0.347 0 0.608 0.108 0.782 0.323 0.181 0.209 0.27 0.469 0.27 0.782s-0.090 0.573-0.27 0.781c-0.174 0.201-0.434 0.302-0.782 0.302-0.354 0-0.617-0.101-0.792-0.302-0.166-0.209-0.25-0.469-0.25-0.782s0.084-0.572 0.25-0.781c0.174-0.215 0.438-0.323 0.792-0.323z"></path>
</symbol>
<symbol id="icon-quotes" viewBox="0 0 44 32">
<path fill="#df3d3a" style="fill: var(--color1, #df3d3a)" d="M0 15.411v-15.411h17.875v11.603c0 12.087-5.958 18.886-17.875 20.397v-6.345c3.011-0.786 5.069-1.934 6.173-3.446 1.167-1.51 1.874-3.776 2.12-6.798h-8.293zM25.645 15.411v-15.411h17.875v11.603c0 12.087-5.958 18.886-17.875 20.397v-6.345c3.009-0.786 5.069-1.934 6.173-3.446 1.167-1.51 1.874-3.776 2.12-6.798h-8.294z"></path>
</symbol>
<symbol id="icon-sinusoid" viewBox="0 0 74 32">
<path fill="#fff" style="fill: var(--color3, #fff)" opacity="0.8" d="M1.345 31.77c-0.42 0.113-0.869 0.083-1.345-0.096l0.131-0.347c0.414 0.156 0.783 0.175 1.117 0.085 0.336-0.091 0.654-0.296 0.957-0.614 0.61-0.642 1.134-1.717 1.602-3.117 0.832-2.485 1.465-5.909 2.13-9.514 0.083-0.448 0.166-0.899 0.25-1.351 0.76-4.079 1.597-8.263 2.844-11.427 0.624-1.583 1.355-2.925 2.241-3.873 0.889-0.953 1.941-1.515 3.193-1.515 1.131 0 2.118 0.523 2.985 1.407 0.864 0.882 1.618 2.133 2.289 3.617 1.344 2.967 2.382 6.916 3.315 10.847 0.224 0.945 0.443 1.89 0.658 2.82 0.681 2.945 1.328 5.745 2.031 7.98 0.463 1.471 0.945 2.681 1.469 3.521 0.369 0.591 0.742 0.973 1.123 1.149l0.005-0.014c0.414 0.156 0.783 0.175 1.117 0.085 0.336-0.091 0.654-0.296 0.956-0.614 0.61-0.642 1.134-1.717 1.603-3.117 0.832-2.485 1.464-5.909 2.13-9.514 0.083-0.448 0.166-0.899 0.25-1.351 0.759-4.079 1.597-8.263 2.844-11.427 0.623-1.583 1.355-2.925 2.241-3.873 0.889-0.953 1.941-1.514 3.193-1.514 1.131 0 2.116 0.523 2.979 1.407 0.861 0.882 1.609 2.133 2.275 3.617 1.332 2.968 2.355 6.916 3.273 10.847 0.22 0.943 0.435 1.886 0.645 2.814l0.001 0.003 0.001 0.003c0.669 2.945 1.306 5.746 2 7.981 0.457 1.471 0.934 2.681 1.455 3.521 0.367 0.591 0.738 0.972 1.118 1.149l0.006-0.015c0.414 0.156 0.785 0.175 1.125 0.085 0.341-0.091 0.666-0.297 0.977-0.616 0.627-0.643 1.174-1.719 1.67-3.118 0.885-2.495 1.585-5.935 2.32-9.554h0l0.003-0.014c0.087-0.43 0.175-0.863 0.264-1.297 0.835-4.079 1.748-8.263 3.052-11.427 0.652-1.583 1.407-2.924 2.309-3.872 0.905-0.952 1.966-1.513 3.218-1.513 1.13 0 2.118 0.523 2.984 1.407 0.864 0.882 1.618 2.133 2.29 3.617 1.344 2.967 2.382 6.916 3.315 10.847 0.224 0.945 0.443 1.89 0.657 2.82h0c0.681 2.945 1.328 5.745 2.031 7.98 0.463 1.471 0.945 2.681 1.469 3.521 0.529 0.848 1.067 1.264 1.624 1.264v0.371c-0.761 0-1.395-0.567-1.939-1.439-0.549-0.881-1.043-2.127-1.508-3.606-0.708-2.25-1.36-5.071-2.041-8.020l-0.001-0.003c-0.214-0.926-0.431-1.865-0.653-2.802-0.934-3.933-1.965-7.849-3.293-10.779-0.663-1.465-1.395-2.672-2.216-3.51-0.819-0.835-1.716-1.296-2.719-1.296-1.126 0-2.095 0.501-2.949 1.398-0.857 0.901-1.591 2.194-2.235 3.757-1.288 3.127-2.195 7.275-3.032 11.36l-0.267 1.314c-0.734 3.612-1.439 7.081-2.334 9.602-0.501 1.411-1.069 2.55-1.754 3.253-0.345 0.354-0.725 0.603-1.147 0.716-0.154 0.042-0.331 0.067-0.513 0.067-0.075 0-0.149-0.004-0.221-0.012l0.009 0.001v0.002c-0.761 0-1.393-0.567-1.934-1.439-0.546-0.881-1.035-2.128-1.494-3.606-0.699-2.25-1.34-5.071-2.010-8.021-0.851-4.167-1.073-5.111-1.299-6.055l0.655 3.249c-0.918-3.933-1.935-7.849-3.25-10.78-0.658-1.465-1.385-2.672-2.203-3.51-0.815-0.835-1.71-1.296-2.713-1.296-1.126 0-2.085 0.501-2.922 1.397-0.84 0.9-1.551 2.193-2.167 3.756-1.231 3.126-2.064 7.274-2.824 11.359 0.646-4.145 0.559-3.687 0.472-3.228l-0.723 4.581c-0.664 3.598-1.302 7.050-2.143 9.562-0.472 1.411-1.017 2.551-1.685 3.255-0.337 0.354-0.711 0.604-1.129 0.717-0.153 0.042-0.328 0.067-0.509 0.067-0.074 0-0.146-0.004-0.218-0.012l0.009 0.001v0.001c-0.761 0-1.395-0.567-1.939-1.439-0.55-0.881-1.043-2.127-1.508-3.606-0.708-2.25-1.36-5.071-2.041-8.020v-0c-0.214-0.927-0.432-1.867-0.654-2.805-0.934-3.933-1.966-7.849-3.293-10.779-0.664-1.465-1.396-2.672-2.217-3.51-0.818-0.835-1.716-1.296-2.719-1.296-1.126 0-2.085 0.501-2.922 1.397-0.84 0.9-1.551 2.193-2.166 3.756-1.231 3.126-2.064 7.274-2.825 11.359-0.084 0.452-0.167 0.904-0.251 1.353-0.664 3.598-1.301 7.050-2.143 9.562-0.472 1.411-1.017 2.551-1.685 3.255-0.337 0.354-0.711 0.604-1.129 0.717z"></path>
</symbol>
</defs>
</svg>
