<svg width="42" height="42" fill="none" xmlns="http://www.w3.org/2000/svg"><circle cx="21" cy="21" r="21" fill="#fff" fill-opacity=".1"/><path d="M19.294 25.395c0-1.094.114-1.983.342-2.666.228-.684.784-1.555 1.668-2.612l.957-1.23c.638-.893.957-1.823.957-2.79 0-.956-.2-1.704-.602-2.242-.392-.546-.957-.82-1.695-.82-.693 0-1.272.246-1.736.738-.456.493-.684 1.153-.684 1.983h-2.406c.018-1.504.474-2.703 1.367-3.596.893-.893 2.046-1.34 3.459-1.34 1.467 0 2.62.46 3.459 1.381.838.92 1.258 2.192 1.258 3.815 0 1.55-.634 3.103-1.9 4.662l-1.258 1.517c-.52.739-.78 1.805-.78 3.2h-2.406Zm1.312 2.884c.456 0 .798.142 1.026.424.237.274.355.615.355 1.026 0 .41-.118.752-.355 1.025-.228.264-.57.396-1.026.396-.464 0-.81-.132-1.039-.396-.218-.274-.328-.615-.328-1.026 0-.41.11-.751.328-1.025.228-.282.575-.424 1.04-.424Z" fill="#E7E7E7"/></svg>